<svg xmlns="http://www.w3.org/2000/svg" viewBox="0 0 96 96">
  <defs>
    <linearGradient id="g" x1="0" y1="0" x2="1" y2="1">
      <stop offset="0" stop-color="#10b981"/>
      <stop offset="0.5" stop-color="#22c55e"/>
      <stop offset="1" stop-color="#0d9488"/>
    </linearGradient>
  </defs>
  <circle cx="48" cy="48" r="48" fill="url(#g)"/>
  <g stroke="#ffffff" stroke-width="3.4" stroke-linecap="round" fill="none">
    <path d="M38 42 24 32 18 18"/>
    <path d="M37 50 21 48 12 38"/>
    <path d="M38 57 24 62 18 76"/>
    <path d="M41 62 33 72 33 84"/>
    <path d="M58 42 72 32 78 18"/>
    <path d="M59 50 75 48 84 38"/>
    <path d="M58 57 72 62 78 76"/>
    <path d="M55 62 63 72 63 84"/>
  </g>
  <ellipse cx="48" cy="56" rx="12" ry="14" fill="#ffffff"/>
  <circle cx="48" cy="38" r="8" fill="#ffffff"/>
  <circle cx="45" cy="36" r="1.6" fill="#0d9488"/>
  <circle cx="51" cy="36" r="1.6" fill="#0d9488"/>
</svg>
