<svg viewBox="0 0 48 48" xmlns="http://www.w3.org/2000/svg">
  <defs>
    <linearGradient id="g" x1="10" y1="4" x2="38" y2="44" gradientUnits="userSpaceOnUse">
      <stop stop-color="#F8BC50"/><stop offset="0.45" stop-color="#F5A524"/><stop offset="1" stop-color="#E23E57"/>
    </linearGradient>
    <radialGradient id="b" cx="0.4" cy="0.3" r="0.9">
      <stop stop-color="#F8BC50"/><stop offset="0.6" stop-color="#F5A524"/><stop offset="1" stop-color="#E23E57"/>
    </radialGradient>
  </defs>
  <rect width="48" height="48" rx="11" fill="#0B0A0F"/>
  <path d="M24 5 V12" stroke="url(#g)" stroke-width="1.4" stroke-linecap="round" opacity="0.65"/>
  <g stroke="url(#g)" stroke-width="2.3" stroke-linecap="round" stroke-linejoin="round" fill="none">
    <path d="M20 18 Q11 11 6.5 13"/><path d="M19.5 20.5 Q9 17.5 3.5 20"/>
    <path d="M19.5 23.5 Q9.5 26 4.5 31.5"/><path d="M20.5 26 Q12.5 32 8.5 39"/>
    <path d="M28 18 Q37 11 41.5 13"/><path d="M28.5 20.5 Q39 17.5 44.5 20"/>
    <path d="M28.5 23.5 Q38.5 26 43.5 31.5"/><path d="M27.5 26 Q35.5 32 39.5 39"/>
  </g>
  <ellipse cx="24" cy="31" rx="7" ry="9" fill="url(#b)"/>
  <ellipse cx="24" cy="19.4" rx="4.6" ry="5.1" fill="url(#b)"/>
  <circle cx="22.4" cy="18.6" r="0.95" fill="#0B0A0F"/>
  <circle cx="25.6" cy="18.6" r="0.95" fill="#0B0A0F"/>
</svg>
